<svg width="168" height="16" viewBox="0 0 168 16" fill="none" xmlns="http://www.w3.org/2000/svg">
<path d="M0.795455 8.09091C1.03409 6.65909 1.4375 5.3428 2.00568 4.14205C2.57765 2.9375 3.29545 1.82955 4.15909 0.818181H5.34091C5.00758 1.19318 4.67614 1.6553 4.34659 2.20455C4.02083 2.75 3.71402 3.35038 3.42614 4.00568C3.14205 4.6572 2.89205 5.33144 2.67614 6.02841C2.46023 6.72538 2.29545 7.41288 2.18182 8.09091C2.0303 8.99242 1.96402 9.9072 1.98295 10.8352C2.00568 11.7633 2.09848 12.625 2.26136 13.4205C2.42803 14.2159 2.65152 14.8636 2.93182 15.3636H1.75C1.22727 14.3523 0.876894 13.2462 0.698864 12.0455C0.524621 10.8409 0.556818 9.52273 0.795455 8.09091ZM17.0696 4.27273C17.0014 3.69697 16.7249 3.25 16.2401 2.93182C15.7552 2.61364 15.1605 2.45455 14.456 2.45455C13.9408 2.45455 13.4901 2.53788 13.1037 2.70455C12.7211 2.87121 12.4219 3.10038 12.206 3.39205C11.9938 3.68371 11.8878 4.01515 11.8878 4.38636C11.8878 4.69697 11.9616 4.96401 12.1094 5.1875C12.2609 5.4072 12.4541 5.59091 12.6889 5.73864C12.9238 5.88258 13.17 6.00189 13.4276 6.09659C13.6851 6.1875 13.9219 6.26136 14.1378 6.31818L15.3196 6.63636C15.6226 6.71591 15.9598 6.82576 16.331 6.96591C16.706 7.10606 17.0639 7.29735 17.4048 7.53977C17.7495 7.77841 18.0336 8.08523 18.2571 8.46023C18.4806 8.83523 18.5923 9.29545 18.5923 9.84091C18.5923 10.4697 18.4276 11.0379 18.098 11.5455C17.7723 12.053 17.295 12.4564 16.6662 12.7557C16.0412 13.0549 15.2817 13.2045 14.3878 13.2045C13.5545 13.2045 12.8329 13.0701 12.223 12.8011C11.617 12.5322 11.1397 12.1572 10.7912 11.6761C10.4465 11.1951 10.2514 10.6364 10.206 10H11.6605C11.6984 10.4394 11.8461 10.803 12.1037 11.0909C12.3651 11.375 12.6946 11.5871 13.0923 11.7273C13.4938 11.8636 13.9257 11.9318 14.3878 11.9318C14.9257 11.9318 15.4086 11.8447 15.8366 11.6705C16.2647 11.4924 16.6037 11.2462 16.8537 10.9318C17.1037 10.6136 17.2287 10.2424 17.2287 9.81818C17.2287 9.43182 17.1207 9.11742 16.9048 8.875C16.6889 8.63258 16.4048 8.43561 16.0526 8.28409C15.7003 8.13258 15.3196 8 14.9105 7.88636L13.4787 7.47727C12.5696 7.21591 11.8499 6.8428 11.3196 6.35795C10.7893 5.87311 10.5241 5.23864 10.5241 4.45455C10.5241 3.80303 10.7003 3.23485 11.0526 2.75C11.4086 2.26136 11.8859 1.88258 12.4844 1.61364C13.0866 1.34091 13.759 1.20455 14.5014 1.20455C15.2514 1.20455 15.9181 1.33901 16.5014 1.60795C17.0848 1.87311 17.5469 2.23674 17.8878 2.69886C18.2325 3.16098 18.4143 3.68561 18.4332 4.27273H17.0696ZM20.9091 13V1.36364H22.3182V7.13636H22.4545L27.6818 1.36364H29.5227L24.6364 6.61364L29.5227 13H27.8182L23.7727 7.59091L22.3182 9.22727V13H20.9091ZM32.7557 1.36364V13H31.3466V1.36364H32.7557ZM44.8082 1.36364V13H43.4446L37.1037 3.86364H36.9901V13H35.581V1.36364H36.9446L43.3082 10.5227H43.4219V1.36364H44.8082ZM52.1278 13V1.36364H53.5369V11.75H58.946V13H52.1278ZM62.5369 1.36364V13H61.1278V1.36364H62.5369ZM73.3168 5C73.1918 4.61742 73.027 4.27462 72.8224 3.97159C72.6217 3.66477 72.3812 3.40341 72.1009 3.1875C71.8243 2.97159 71.5099 2.80682 71.1577 2.69318C70.8054 2.57955 70.419 2.52273 69.9986 2.52273C69.3092 2.52273 68.6823 2.70076 68.1179 3.05682C67.5535 3.41288 67.1046 3.9375 66.7713 4.63068C66.438 5.32386 66.2713 6.17424 66.2713 7.18182C66.2713 8.18939 66.4399 9.03977 66.777 9.73295C67.1141 10.4261 67.5705 10.9508 68.1463 11.3068C68.7221 11.6629 69.3698 11.8409 70.0895 11.8409C70.7562 11.8409 71.3433 11.6989 71.8509 11.4148C72.3622 11.1269 72.7599 10.7216 73.044 10.1989C73.3319 9.67235 73.4759 9.05303 73.4759 8.34091L73.9077 8.43182H70.4077V7.18182H74.8395V8.43182C74.8395 9.39015 74.6349 10.2235 74.2259 10.9318C73.8205 11.6402 73.2599 12.1894 72.544 12.5795C71.8319 12.9659 71.0137 13.1591 70.0895 13.1591C69.0592 13.1591 68.1539 12.9167 67.3736 12.4318C66.5971 11.947 65.991 11.2576 65.5554 10.3636C65.1236 9.4697 64.9077 8.40909 64.9077 7.18182C64.9077 6.26136 65.0308 5.43371 65.277 4.69886C65.527 3.96023 65.8793 3.33144 66.3338 2.8125C66.7884 2.29356 67.3262 1.89583 67.9474 1.61932C68.5687 1.3428 69.2524 1.20455 69.9986 1.20455C70.6122 1.20455 71.1842 1.29735 71.7145 1.48295C72.2486 1.66477 72.724 1.92424 73.1406 2.26136C73.5611 2.5947 73.9115 2.99432 74.1918 3.46023C74.4721 3.92235 74.6652 4.43561 74.7713 5H73.3168ZM77.2528 13V1.36364H78.6619V6.54545H84.8665V1.36364H86.2756V13H84.8665V7.79545H78.6619V13H77.2528ZM88.4602 2.61364V1.36364H97.1875V2.61364H93.5284V13H92.1193V2.61364H88.4602ZM111.817 5C111.692 4.61742 111.527 4.27462 111.322 3.97159C111.122 3.66477 110.881 3.40341 110.601 3.1875C110.324 2.97159 110.01 2.80682 109.658 2.69318C109.305 2.57955 108.919 2.52273 108.499 2.52273C107.809 2.52273 107.182 2.70076 106.618 3.05682C106.054 3.41288 105.605 3.9375 105.271 4.63068C104.938 5.32386 104.771 6.17424 104.771 7.18182C104.771 8.18939 104.94 9.03977 105.277 9.73295C105.614 10.4261 106.071 10.9508 106.646 11.3068C107.222 11.6629 107.87 11.8409 108.589 11.8409C109.256 11.8409 109.843 11.6989 110.351 11.4148C110.862 11.1269 111.26 10.7216 111.544 10.1989C111.832 9.67235 111.976 9.05303 111.976 8.34091L112.408 8.43182H108.908V7.18182H113.339V8.43182C113.339 9.39015 113.135 10.2235 112.726 10.9318C112.321 11.6402 111.76 12.1894 111.044 12.5795C110.332 12.9659 109.514 13.1591 108.589 13.1591C107.559 13.1591 106.654 12.9167 105.874 12.4318C105.097 11.947 104.491 11.2576 104.055 10.3636C103.624 9.4697 103.408 8.40909 103.408 7.18182C103.408 6.26136 103.531 5.43371 103.777 4.69886C104.027 3.96023 104.379 3.33144 104.834 2.8125C105.288 2.29356 105.826 1.89583 106.447 1.61932C107.069 1.3428 107.752 1.20455 108.499 1.20455C109.112 1.20455 109.684 1.29735 110.214 1.48295C110.749 1.66477 111.224 1.92424 111.641 2.26136C112.061 2.5947 112.411 2.99432 112.692 3.46023C112.972 3.92235 113.165 4.43561 113.271 5H111.817ZM115.753 13V1.36364H119.685C120.594 1.36364 121.34 1.51894 121.923 1.82955C122.507 2.13636 122.938 2.55871 123.219 3.09659C123.499 3.63447 123.639 4.24621 123.639 4.93182C123.639 5.61742 123.499 6.22538 123.219 6.75568C122.938 7.28598 122.509 7.70265 121.929 8.00568C121.349 8.30492 120.609 8.45455 119.707 8.45455H116.526V7.18182H119.662C120.283 7.18182 120.783 7.09091 121.162 6.90909C121.545 6.72727 121.821 6.4697 121.991 6.13636C122.166 5.79924 122.253 5.39773 122.253 4.93182C122.253 4.46591 122.166 4.05871 121.991 3.71023C121.817 3.36174 121.539 3.0928 121.156 2.90341C120.774 2.71023 120.268 2.61364 119.639 2.61364H117.162V13H115.753ZM121.23 7.77273L124.094 13H122.457L119.639 7.77273H121.23ZM135.805 7.18182C135.805 8.40909 135.584 9.4697 135.141 10.3636C134.697 11.2576 134.089 11.947 133.317 12.4318C132.544 12.9167 131.661 13.1591 130.669 13.1591C129.677 13.1591 128.794 12.9167 128.021 12.4318C127.249 11.947 126.641 11.2576 126.197 10.3636C125.754 9.4697 125.533 8.40909 125.533 7.18182C125.533 5.95455 125.754 4.89394 126.197 4C126.641 3.10606 127.249 2.41667 128.021 1.93182C128.794 1.44697 129.677 1.20455 130.669 1.20455C131.661 1.20455 132.544 1.44697 133.317 1.93182C134.089 2.41667 134.697 3.10606 135.141 4C135.584 4.89394 135.805 5.95455 135.805 7.18182ZM134.442 7.18182C134.442 6.17424 134.273 5.32386 133.936 4.63068C133.603 3.9375 133.15 3.41288 132.578 3.05682C132.01 2.70076 131.374 2.52273 130.669 2.52273C129.964 2.52273 129.326 2.70076 128.754 3.05682C128.186 3.41288 127.733 3.9375 127.396 4.63068C127.063 5.32386 126.896 6.17424 126.896 7.18182C126.896 8.18939 127.063 9.03977 127.396 9.73295C127.733 10.4261 128.186 10.9508 128.754 11.3068C129.326 11.6629 129.964 11.8409 130.669 11.8409C131.374 11.8409 132.01 11.6629 132.578 11.3068C133.15 10.9508 133.603 10.4261 133.936 9.73295C134.273 9.03977 134.442 8.18939 134.442 7.18182ZM145.811 1.36364H147.22V9.06818C147.22 9.86364 147.033 10.5739 146.658 11.1989C146.286 11.8201 145.762 12.3106 145.084 12.6705C144.406 13.0265 143.61 13.2045 142.697 13.2045C141.785 13.2045 140.989 13.0265 140.311 12.6705C139.633 12.3106 139.107 11.8201 138.732 11.1989C138.36 10.5739 138.175 9.86364 138.175 9.06818V1.36364H139.584V8.95455C139.584 9.52273 139.709 10.0284 139.959 10.4716C140.209 10.911 140.565 11.2576 141.027 11.5114C141.493 11.7614 142.05 11.8864 142.697 11.8864C143.345 11.8864 143.902 11.7614 144.368 11.5114C144.834 11.2576 145.19 10.911 145.436 10.4716C145.686 10.0284 145.811 9.52273 145.811 8.95455V1.36364ZM150.034 13V1.36364H153.966C154.879 1.36364 155.625 1.52841 156.205 1.85795C156.788 2.18371 157.22 2.625 157.5 3.18182C157.78 3.73864 157.92 4.35985 157.92 5.04545C157.92 5.73106 157.78 6.35417 157.5 6.91477C157.223 7.47538 156.795 7.92235 156.216 8.25568C155.636 8.58523 154.894 8.75 153.989 8.75H151.17V7.5H153.943C154.568 7.5 155.07 7.39205 155.449 7.17614C155.828 6.96023 156.102 6.66856 156.273 6.30114C156.447 5.92992 156.534 5.51136 156.534 5.04545C156.534 4.57955 156.447 4.16288 156.273 3.79545C156.102 3.42803 155.826 3.14015 155.443 2.93182C155.061 2.7197 154.553 2.61364 153.92 2.61364H151.443V13H150.034ZM167.463 8.09091C167.224 9.52273 166.819 10.8409 166.247 12.0455C165.679 13.2462 164.963 14.3523 164.099 15.3636H162.918C163.255 14.9886 163.586 14.5265 163.912 13.9773C164.238 13.4318 164.543 12.8333 164.827 12.1818C165.115 11.5265 165.366 10.8504 165.582 10.1534C165.798 9.45265 165.963 8.76515 166.077 8.09091C166.228 7.18939 166.293 6.27462 166.27 5.34659C166.251 4.41856 166.158 3.55682 165.991 2.76136C165.829 1.96591 165.607 1.31818 165.327 0.818181H166.509C167.031 1.82955 167.38 2.9375 167.554 4.14205C167.732 5.3428 167.702 6.65909 167.463 8.09091Z" fill="#4F3E35"/>
</svg>
