<svg width="11" height="6" viewBox="0 0 11 6" fill="none" xmlns="http://www.w3.org/2000/svg">
<path d="M4.77117 5.56211L0.13584 1.2925C0.0927734 1.25284 0.0586119 1.20574 0.0353041 1.15391C0.0119963 1.10208 0 1.04653 0 0.99043C0 0.93433 0.0119963 0.878779 0.0353041 0.826949C0.0586119 0.775119 0.0927734 0.728024 0.13584 0.688355C0.178907 0.648687 0.230036 0.617219 0.286305 0.595751C0.342575 0.574282 0.402884 0.563232 0.463791 0.563232C0.524696 0.563232 0.585006 0.574282 0.641275 0.595751C0.697546 0.617219 0.748673 0.648687 0.79174 0.688355L5.09912 4.65642L9.4065 0.688355C9.49348 0.60824 9.61145 0.563232 9.73445 0.563232C9.85746 0.563232 9.97542 0.60824 10.0624 0.688355C10.1494 0.768471 10.1982 0.87713 10.1982 0.99043C10.1982 1.10373 10.1494 1.21239 10.0624 1.2925L5.42707 5.56211C5.38402 5.6018 5.3329 5.6333 5.27663 5.65478C5.22035 5.67627 5.16004 5.68733 5.09912 5.68733C5.03821 5.68733 4.97789 5.67627 4.92162 5.65478C4.86534 5.6333 4.81422 5.6018 4.77117 5.56211Z" fill="#4A3931"/>
</svg>
