<svg width="114" height="16" viewBox="0 0 114 16" fill="none" xmlns="http://www.w3.org/2000/svg">
<path d="M0.795455 8.09091C1.03409 6.65909 1.4375 5.3428 2.00568 4.14205C2.57765 2.9375 3.29545 1.82955 4.15909 0.818181H5.34091C5.00758 1.19318 4.67614 1.6553 4.34659 2.20455C4.02083 2.75 3.71402 3.35038 3.42614 4.00568C3.14205 4.6572 2.89205 5.33144 2.67614 6.02841C2.46023 6.72538 2.29545 7.41288 2.18182 8.09091C2.0303 8.99242 1.96402 9.9072 1.98295 10.8352C2.00568 11.7633 2.09848 12.625 2.26136 13.4205C2.42803 14.2159 2.65152 14.8636 2.93182 15.3636H1.75C1.22727 14.3523 0.876894 13.2462 0.698864 12.0455C0.524621 10.8409 0.556818 9.52273 0.795455 8.09091ZM11.1832 13H9.70597L13.9787 1.36364H15.4332L19.706 13H18.2287L14.7514 3.20455H14.6605L11.1832 13ZM11.7287 8.45455H17.6832V9.70455H11.7287V8.45455ZM21.5185 13V1.36364H22.8594V5.65909H22.973C23.0715 5.50758 23.2079 5.31439 23.3821 5.07955C23.5601 4.84091 23.8139 4.62879 24.1435 4.44318C24.4768 4.25379 24.9276 4.15909 25.4957 4.15909C26.2306 4.15909 26.8783 4.3428 27.4389 4.71023C27.9995 5.07765 28.437 5.59848 28.7514 6.27273C29.0658 6.94697 29.223 7.74242 29.223 8.65909C29.223 9.58333 29.0658 10.3845 28.7514 11.0625C28.437 11.7367 28.0014 12.2595 27.4446 12.6307C26.8878 12.9981 26.2457 13.1818 25.5185 13.1818C24.9579 13.1818 24.509 13.089 24.1719 12.9034C23.8348 12.714 23.5753 12.5 23.3935 12.2614C23.2116 12.0189 23.0715 11.8182 22.973 11.6591H22.8139V13H21.5185ZM22.8366 8.63636C22.8366 9.29545 22.9332 9.87689 23.1264 10.3807C23.3196 10.8807 23.6018 11.2727 23.973 11.5568C24.3442 11.8371 24.7988 11.9773 25.3366 11.9773C25.8973 11.9773 26.3651 11.8295 26.7401 11.5341C27.1188 11.2348 27.4029 10.8333 27.5923 10.3295C27.7855 9.82197 27.8821 9.25758 27.8821 8.63636C27.8821 8.02273 27.7874 7.4697 27.598 6.97727C27.4124 6.48106 27.1302 6.08902 26.7514 5.80114C26.3764 5.50947 25.9048 5.36364 25.3366 5.36364C24.7912 5.36364 24.3329 5.50189 23.9616 5.77841C23.5904 6.05114 23.3101 6.43371 23.1207 6.92614C22.9313 7.41477 22.8366 7.98485 22.8366 8.63636ZM34.8196 13.1818C34.0317 13.1818 33.3404 12.9943 32.7457 12.6193C32.1548 12.2443 31.6927 11.7197 31.3594 11.0455C31.0298 10.3712 30.8651 9.58333 30.8651 8.68182C30.8651 7.77273 31.0298 6.97917 31.3594 6.30114C31.6927 5.62311 32.1548 5.09659 32.7457 4.72159C33.3404 4.34659 34.0317 4.15909 34.8196 4.15909C35.6075 4.15909 36.2969 4.34659 36.8878 4.72159C37.4825 5.09659 37.9446 5.62311 38.2741 6.30114C38.6075 6.97917 38.7741 7.77273 38.7741 8.68182C38.7741 9.58333 38.6075 10.3712 38.2741 11.0455C37.9446 11.7197 37.4825 12.2443 36.8878 12.6193C36.2969 12.9943 35.6075 13.1818 34.8196 13.1818ZM34.8196 11.9773C35.4181 11.9773 35.9105 11.8239 36.2969 11.517C36.6832 11.2102 36.9692 10.8068 37.1548 10.3068C37.3404 9.80682 37.4332 9.26515 37.4332 8.68182C37.4332 8.09848 37.3404 7.55492 37.1548 7.05114C36.9692 6.54735 36.6832 6.14015 36.2969 5.82955C35.9105 5.51894 35.4181 5.36364 34.8196 5.36364C34.2211 5.36364 33.7287 5.51894 33.3423 5.82955C32.956 6.14015 32.67 6.54735 32.4844 7.05114C32.2988 7.55492 32.206 8.09848 32.206 8.68182C32.206 9.26515 32.2988 9.80682 32.4844 10.3068C32.67 10.8068 32.956 11.2102 33.3423 11.517C33.7287 11.8239 34.2211 11.9773 34.8196 11.9773ZM46.321 9.43182V4.27273H47.6619V13H46.321V11.5227H46.2301C46.0256 11.9659 45.7074 12.3428 45.2756 12.6534C44.8438 12.9602 44.2983 13.1136 43.6392 13.1136C43.0938 13.1136 42.6089 12.9943 42.1847 12.7557C41.7604 12.5133 41.4271 12.1496 41.1847 11.6648C40.9422 11.1761 40.821 10.5606 40.821 9.81818V4.27273H42.1619V9.72727C42.1619 10.3636 42.34 10.8712 42.696 11.25C43.0559 11.6288 43.5142 11.8182 44.071 11.8182C44.4044 11.8182 44.7434 11.733 45.0881 11.5625C45.4366 11.392 45.7282 11.1307 45.9631 10.7784C46.2017 10.4261 46.321 9.97727 46.321 9.43182ZM53.9134 4.27273V5.40909H49.3906V4.27273H53.9134ZM50.7088 2.18182H52.0497V10.5C52.0497 10.8788 52.1046 11.1629 52.2145 11.3523C52.3281 11.5379 52.4721 11.6629 52.6463 11.7273C52.8243 11.7879 53.0118 11.8182 53.2088 11.8182C53.3565 11.8182 53.4777 11.8106 53.5724 11.7955C53.6671 11.7765 53.7429 11.7614 53.7997 11.75L54.0724 12.9545C53.9815 12.9886 53.8546 13.0227 53.6918 13.0568C53.5289 13.0947 53.3224 13.1136 53.0724 13.1136C52.6937 13.1136 52.3224 13.0322 51.9588 12.8693C51.599 12.7064 51.2997 12.4583 51.0611 12.125C50.8262 11.7917 50.7088 11.3712 50.7088 10.8636V2.18182ZM60.6122 13V1.36364H64.6804C65.491 1.36364 66.1596 1.50379 66.6861 1.78409C67.2126 2.06061 67.6046 2.43371 67.8622 2.90341C68.1198 3.36932 68.2486 3.88636 68.2486 4.45455C68.2486 4.95455 68.1596 5.36742 67.9815 5.69318C67.8073 6.01894 67.5762 6.27652 67.2884 6.46591C67.0043 6.6553 66.6955 6.79545 66.3622 6.88636V7C66.7183 7.02273 67.0762 7.14773 67.4361 7.375C67.7959 7.60227 68.0971 7.92803 68.3395 8.35227C68.5819 8.77651 68.7031 9.29545 68.7031 9.90909C68.7031 10.4924 68.5705 11.017 68.3054 11.483C68.0402 11.9489 67.6217 12.3182 67.0497 12.5909C66.4777 12.8636 65.7334 13 64.8168 13H60.6122ZM62.0213 11.75H64.8168C65.7372 11.75 66.3906 11.572 66.777 11.2159C67.1671 10.8561 67.3622 10.4205 67.3622 9.90909C67.3622 9.51515 67.2618 9.15152 67.0611 8.81818C66.8603 8.48106 66.5743 8.21212 66.2031 8.01136C65.8319 7.80682 65.3925 7.70455 64.8849 7.70455H62.0213V11.75ZM62.0213 6.47727H64.6349C65.0592 6.47727 65.4418 6.39394 65.7827 6.22727C66.1274 6.06061 66.4001 5.82576 66.6009 5.52273C66.8054 5.2197 66.9077 4.86364 66.9077 4.45455C66.9077 3.94318 66.7296 3.50947 66.3736 3.15341C66.0175 2.79356 65.4531 2.61364 64.6804 2.61364H62.0213V6.47727ZM73.4048 13.2045C72.8518 13.2045 72.3499 13.1004 71.8991 12.892C71.4484 12.6799 71.0904 12.375 70.8253 11.9773C70.5601 11.5758 70.4276 11.0909 70.4276 10.5227C70.4276 10.0227 70.526 9.61742 70.723 9.30682C70.92 8.99242 71.1832 8.74621 71.5128 8.56818C71.8423 8.39015 72.206 8.25758 72.6037 8.17045C73.0052 8.07955 73.4086 8.00758 73.8139 7.95455C74.3442 7.88636 74.7741 7.83523 75.1037 7.80114C75.437 7.76326 75.6795 7.70076 75.831 7.61364C75.9863 7.52652 76.0639 7.375 76.0639 7.15909V7.11364C76.0639 6.55303 75.9105 6.11742 75.6037 5.80682C75.3007 5.49621 74.8404 5.34091 74.223 5.34091C73.5829 5.34091 73.081 5.48106 72.7173 5.76136C72.3537 6.04167 72.098 6.34091 71.9503 6.65909L70.6776 6.20455C70.9048 5.67424 71.2079 5.26136 71.5866 4.96591C71.9692 4.66667 72.3859 4.45833 72.8366 4.34091C73.2912 4.2197 73.7382 4.15909 74.1776 4.15909C74.4579 4.15909 74.7798 4.19318 75.1435 4.26136C75.5109 4.32576 75.8651 4.46023 76.206 4.66477C76.5507 4.86932 76.8366 5.17803 77.0639 5.59091C77.2912 6.00379 77.4048 6.55682 77.4048 7.25V13H76.0639V11.8182H75.9957C75.9048 12.0076 75.7533 12.2102 75.5412 12.4261C75.3291 12.642 75.0469 12.8258 74.6946 12.9773C74.3423 13.1288 73.9124 13.2045 73.4048 13.2045ZM73.6094 12C74.1397 12 74.5866 11.8958 74.9503 11.6875C75.3177 11.4792 75.5942 11.2102 75.7798 10.8807C75.9692 10.5511 76.0639 10.2045 76.0639 9.84091V8.61364C76.0071 8.68182 75.8821 8.74432 75.6889 8.80114C75.4995 8.85417 75.2798 8.90151 75.0298 8.94318C74.7836 8.98106 74.5431 9.01515 74.3082 9.04545C74.0772 9.07197 73.8897 9.0947 73.7457 9.11364C73.3973 9.15909 73.0715 9.23295 72.7685 9.33523C72.4692 9.43371 72.2268 9.58333 72.0412 9.78409C71.8594 9.98106 71.7685 10.25 71.7685 10.5909C71.7685 11.0568 71.9408 11.4091 72.2855 11.6477C72.634 11.8826 73.0753 12 73.6094 12ZM80.0341 13V1.36364H81.375V5.65909H81.4886C81.5871 5.50758 81.7235 5.31439 81.8977 5.07955C82.0758 4.84091 82.3295 4.62879 82.6591 4.44318C82.9924 4.25379 83.4432 4.15909 84.0114 4.15909C84.7462 4.15909 85.3939 4.3428 85.9545 4.71023C86.5152 5.07765 86.9527 5.59848 87.267 6.27273C87.5814 6.94697 87.7386 7.74242 87.7386 8.65909C87.7386 9.58333 87.5814 10.3845 87.267 11.0625C86.9527 11.7367 86.517 12.2595 85.9602 12.6307C85.4034 12.9981 84.7614 13.1818 84.0341 13.1818C83.4735 13.1818 83.0246 13.089 82.6875 12.9034C82.3504 12.714 82.0909 12.5 81.9091 12.2614C81.7273 12.0189 81.5871 11.8182 81.4886 11.6591H81.3295V13H80.0341ZM81.3523 8.63636C81.3523 9.29545 81.4489 9.87689 81.642 10.3807C81.8352 10.8807 82.1174 11.2727 82.4886 11.5568C82.8598 11.8371 83.3144 11.9773 83.8523 11.9773C84.4129 11.9773 84.8807 11.8295 85.2557 11.5341C85.6345 11.2348 85.9186 10.8333 86.108 10.3295C86.3011 9.82197 86.3977 9.25758 86.3977 8.63636C86.3977 8.02273 86.303 7.4697 86.1136 6.97727C85.928 6.48106 85.6458 6.08902 85.267 5.80114C84.892 5.50947 84.4205 5.36364 83.8523 5.36364C83.3068 5.36364 82.8485 5.50189 82.4773 5.77841C82.1061 6.05114 81.8258 6.43371 81.6364 6.92614C81.447 7.41477 81.3523 7.98485 81.3523 8.63636ZM93.3352 13.1818C92.5473 13.1818 91.8561 12.9943 91.2614 12.6193C90.6705 12.2443 90.2083 11.7197 89.875 11.0455C89.5455 10.3712 89.3807 9.58333 89.3807 8.68182C89.3807 7.77273 89.5455 6.97917 89.875 6.30114C90.2083 5.62311 90.6705 5.09659 91.2614 4.72159C91.8561 4.34659 92.5473 4.15909 93.3352 4.15909C94.1231 4.15909 94.8125 4.34659 95.4034 4.72159C95.9981 5.09659 96.4602 5.62311 96.7898 6.30114C97.1231 6.97917 97.2898 7.77273 97.2898 8.68182C97.2898 9.58333 97.1231 10.3712 96.7898 11.0455C96.4602 11.7197 95.9981 12.2443 95.4034 12.6193C94.8125 12.9943 94.1231 13.1818 93.3352 13.1818ZM93.3352 11.9773C93.9337 11.9773 94.4261 11.8239 94.8125 11.517C95.1989 11.2102 95.4848 10.8068 95.6705 10.3068C95.8561 9.80682 95.9489 9.26515 95.9489 8.68182C95.9489 8.09848 95.8561 7.55492 95.6705 7.05114C95.4848 6.54735 95.1989 6.14015 94.8125 5.82955C94.4261 5.51894 93.9337 5.36364 93.3352 5.36364C92.7367 5.36364 92.2443 5.51894 91.858 5.82955C91.4716 6.14015 91.1856 6.54735 91 7.05114C90.8144 7.55492 90.7216 8.09848 90.7216 8.68182C90.7216 9.26515 90.8144 9.80682 91 10.3068C91.1856 10.8068 91.4716 11.2102 91.858 11.517C92.2443 11.8239 92.7367 11.9773 93.3352 11.9773ZM99.3366 13V4.27273H100.632V5.59091H100.723C100.882 5.15909 101.17 4.80871 101.587 4.53977C102.003 4.27083 102.473 4.13636 102.996 4.13636C103.094 4.13636 103.217 4.13826 103.365 4.14205C103.513 4.14583 103.625 4.15152 103.7 4.15909V5.52273C103.655 5.51136 103.551 5.49432 103.388 5.47159C103.229 5.44508 103.06 5.43182 102.882 5.43182C102.458 5.43182 102.079 5.52083 101.746 5.69886C101.416 5.87311 101.155 6.11553 100.962 6.42614C100.772 6.73295 100.678 7.08333 100.678 7.47727V13H99.3366ZM112.744 8.09091C112.506 9.52273 112.1 10.8409 111.528 12.0455C110.96 13.2462 110.244 14.3523 109.381 15.3636H108.199C108.536 14.9886 108.867 14.5265 109.193 13.9773C109.519 13.4318 109.824 12.8333 110.108 12.1818C110.396 11.5265 110.648 10.8504 110.864 10.1534C111.08 9.45265 111.244 8.76515 111.358 8.09091C111.509 7.18939 111.574 6.27462 111.551 5.34659C111.532 4.41856 111.439 3.55682 111.273 2.76136C111.11 1.96591 110.888 1.31818 110.608 0.818181H111.79C112.313 1.82955 112.661 2.9375 112.835 4.14205C113.013 5.3428 112.983 6.65909 112.744 8.09091Z" fill="#4F3E35"/>
</svg>
