<svg width="12" height="12" viewBox="0 0 12 12" fill="none" xmlns="http://www.w3.org/2000/svg">
<path d="M10.8492 0.94869C10.9586 1.05809 11.0201 1.20646 11.0201 1.36117C11.0201 1.51588 10.9586 1.66425 10.8492 1.77365L6.72445 5.89844L10.8492 10.0232C10.9586 10.1326 11.0201 10.281 11.0201 10.4357C11.0201 10.5904 10.9586 10.7388 10.8492 10.8482C10.7398 10.9576 10.5915 11.019 10.4368 11.019C10.2821 11.019 10.1337 10.9576 10.0243 10.8482L5.8995 6.7234L1.77471 10.8482C1.66531 10.9576 1.51694 11.019 1.36223 11.019C1.20752 11.019 1.05914 10.9576 0.949747 10.8482C0.840351 10.7388 0.778893 10.5904 0.778893 10.4357C0.778893 10.281 0.840351 10.1326 0.949748 10.0232L5.07454 5.89844L0.949748 1.77365C0.840351 1.66425 0.778893 1.51588 0.778893 1.36117C0.778893 1.20646 0.840351 1.05809 0.949747 0.94869C1.05914 0.839294 1.20752 0.777835 1.36223 0.777836C1.51694 0.777835 1.66531 0.839294 1.77471 0.94869L5.8995 5.07348L10.0243 0.94869C10.1337 0.839294 10.2821 0.777835 10.4368 0.777836C10.5915 0.777836 10.7398 0.839294 10.8492 0.94869Z" fill="#919191"/>
</svg>
