<svg width="18" height="16" viewBox="0 0 18 16" fill="none" xmlns="http://www.w3.org/2000/svg">
<path d="M3.95898 12.125H1.20898M3.95898 12.125C3.95898 13.6438 5.19021 14.875 6.70898 14.875C8.22781 14.875 9.45898 13.6438 9.45898 12.125M3.95898 12.125C3.95898 10.6062 5.19021 9.375 6.70898 9.375C8.22781 9.375 9.45898 10.6062 9.45898 12.125M9.45898 12.125H16.7923M8.54232 3.875H1.20898M8.54232 3.875C8.54232 5.39378 9.77349 6.625 11.2923 6.625C12.8111 6.625 14.0423 5.39378 14.0423 3.875M8.54232 3.875C8.54232 2.35622 9.77349 1.125 11.2923 1.125C12.8111 1.125 14.0423 2.35622 14.0423 3.875M14.0423 3.875H16.7923" stroke="#493931" stroke-width="0.916667" stroke-linecap="round" stroke-linejoin="round"/>
</svg>
