<svg width="185" height="16" viewBox="0 0 185 16" fill="none" xmlns="http://www.w3.org/2000/svg">
<path d="M8.71591 4.09091C8.63068 3.37121 8.28504 2.8125 7.67898 2.41477C7.07292 2.01705 6.32955 1.81818 5.44886 1.81818C4.80492 1.81818 4.24148 1.92235 3.75852 2.13068C3.2803 2.33901 2.90625 2.62547 2.63636 2.99006C2.37121 3.35464 2.23864 3.76894 2.23864 4.23295C2.23864 4.62121 2.33097 4.95502 2.51562 5.23438C2.70502 5.509 2.9465 5.73864 3.24006 5.9233C3.53362 6.10322 3.84138 6.25237 4.16335 6.37074C4.48532 6.48437 4.78125 6.5767 5.05114 6.64773L6.52841 7.04545C6.9072 7.14489 7.3286 7.2822 7.79261 7.45739C8.26136 7.63258 8.70881 7.87169 9.13494 8.17472C9.56581 8.47301 9.92093 8.85653 10.2003 9.32528C10.4796 9.79403 10.6193 10.3693 10.6193 11.0511C10.6193 11.8371 10.4134 12.5473 10.0014 13.1818C9.59422 13.8163 8.99763 14.3205 8.21165 14.6946C7.4304 15.0687 6.48106 15.2557 5.36364 15.2557C4.32197 15.2557 3.41998 15.0876 2.65767 14.7514C1.90009 14.4152 1.3035 13.9465 0.867898 13.3452C0.437027 12.7438 0.193182 12.0455 0.136364 11.25H1.95455C2.00189 11.7992 2.18655 12.2538 2.50852 12.6136C2.83523 12.9687 3.24716 13.2339 3.74432 13.4091C4.24621 13.5795 4.78598 13.6648 5.36364 13.6648C6.03598 13.6648 6.63968 13.5559 7.17472 13.3381C7.70975 13.1155 8.13352 12.8078 8.44602 12.4148C8.75852 12.017 8.91477 11.553 8.91477 11.0227C8.91477 10.5398 8.77983 10.1468 8.50994 9.84375C8.24006 9.54072 7.88494 9.29451 7.4446 9.10511C7.00426 8.91572 6.52841 8.75 6.01705 8.60795L4.22727 8.09659C3.09091 7.76989 2.19129 7.3035 1.52841 6.69744C0.86553 6.09138 0.534091 5.2983 0.534091 4.31818C0.534091 3.50379 0.754261 2.79356 1.1946 2.1875C1.63968 1.5767 2.23627 1.10322 2.98438 0.767045C3.73722 0.426136 4.57765 0.255681 5.50568 0.255681C6.44318 0.255681 7.27652 0.423768 8.00568 0.759943C8.73485 1.09138 9.3125 1.54593 9.73864 2.12358C10.1695 2.70123 10.3968 3.35701 10.4205 4.09091H8.71591ZM13.5153 15V0.454545H15.2766V7.67045H15.4471L21.9812 0.454545H24.2823L18.1744 7.01705L24.2823 15H22.1516L17.0948 8.23864L15.2766 10.2841V15H13.5153ZM28.3235 0.454545V15H26.5621V0.454545H28.3235ZM43.3892 0.454545V15H41.6847L33.7585 3.57955H33.6165V15H31.8551V0.454545H33.5597L41.5142 11.9034H41.6562V0.454545H43.3892ZM52.5387 15V0.454545H54.3001V13.4375H61.0614V15H52.5387ZM65.5501 0.454545V15H63.7887V0.454545H65.5501ZM79.0249 5C78.8686 4.52178 78.6626 4.09328 78.407 3.71449C78.156 3.33097 77.8554 3.00426 77.505 2.73438C77.1593 2.46449 76.7663 2.25852 76.326 2.11648C75.8857 1.97443 75.4027 1.90341 74.8771 1.90341C74.0154 1.90341 73.2318 2.12595 72.5263 2.57102C71.8208 3.0161 71.2597 3.67188 70.843 4.53835C70.4264 5.40483 70.218 6.4678 70.218 7.72727C70.218 8.98674 70.4287 10.0497 70.8501 10.9162C71.2715 11.7827 71.8421 12.4384 72.5618 12.8835C73.2815 13.3286 74.0911 13.5511 74.9908 13.5511C75.8241 13.5511 76.558 13.3736 77.1925 13.0185C77.8317 12.6586 78.3288 12.152 78.6839 11.4986C79.0438 10.8404 79.2237 10.0663 79.2237 9.17614L79.7635 9.28977H75.3885V7.72727H80.9283V9.28977C80.9283 10.4877 80.6726 11.5294 80.1612 12.4148C79.6546 13.3002 78.9538 13.9867 78.0589 14.4744C77.1688 14.9574 76.1461 15.1989 74.9908 15.1989C73.7029 15.1989 72.5713 14.8958 71.5959 14.2898C70.6252 13.6837 69.8677 12.822 69.3232 11.7045C68.7834 10.5871 68.5135 9.26136 68.5135 7.72727C68.5135 6.5767 68.6674 5.54214 68.9751 4.62358C69.2876 3.70028 69.728 2.9143 70.2962 2.26562C70.8643 1.61695 71.5367 1.11979 72.3132 0.774148C73.0897 0.428503 73.9444 0.255681 74.8771 0.255681C75.6442 0.255681 76.3591 0.371685 77.022 0.603693C77.6896 0.830965 78.2839 1.1553 78.8047 1.5767C79.3303 1.99337 79.7682 2.4929 80.1186 3.07528C80.469 3.65294 80.7105 4.29451 80.843 5H79.0249ZM83.945 15V0.454545H85.7063V6.93182H93.462V0.454545H95.2234V15H93.462V8.49432H85.7063V15H83.945ZM97.9542 2.01705V0.454545H108.863V2.01705H104.289V15H102.528V2.01705H97.9542ZM127.15 5C126.994 4.52178 126.788 4.09328 126.532 3.71449C126.281 3.33097 125.98 3.00426 125.63 2.73438C125.284 2.46449 124.891 2.25852 124.451 2.11648C124.011 1.97443 123.528 1.90341 123.002 1.90341C122.14 1.90341 121.357 2.12595 120.651 2.57102C119.946 3.0161 119.385 3.67188 118.968 4.53835C118.551 5.40483 118.343 6.4678 118.343 7.72727C118.343 8.98674 118.554 10.0497 118.975 10.9162C119.397 11.7827 119.967 12.4384 120.687 12.8835C121.406 13.3286 122.216 13.5511 123.116 13.5511C123.949 13.5511 124.683 13.3736 125.317 13.0185C125.957 12.6586 126.454 12.152 126.809 11.4986C127.169 10.8404 127.349 10.0663 127.349 9.17614L127.888 9.28977H123.513V7.72727H129.053V9.28977C129.053 10.4877 128.798 11.5294 128.286 12.4148C127.78 13.3002 127.079 13.9867 126.184 14.4744C125.294 14.9574 124.271 15.1989 123.116 15.1989C121.828 15.1989 120.696 14.8958 119.721 14.2898C118.75 13.6837 117.993 12.822 117.448 11.7045C116.908 10.5871 116.638 9.26136 116.638 7.72727C116.638 6.5767 116.792 5.54214 117.1 4.62358C117.413 3.70028 117.853 2.9143 118.421 2.26562C118.989 1.61695 119.662 1.11979 120.438 0.774148C121.215 0.428503 122.069 0.255681 123.002 0.255681C123.769 0.255681 124.484 0.371685 125.147 0.603693C125.815 0.830965 126.409 1.1553 126.93 1.5767C127.455 1.99337 127.893 2.4929 128.244 3.07528C128.594 3.65294 128.835 4.29451 128.968 5H127.15ZM132.07 15V0.454545H136.985C138.121 0.454545 139.054 0.648674 139.783 1.03693C140.512 1.42045 141.052 1.94839 141.402 2.62074C141.753 3.29309 141.928 4.05777 141.928 4.91477C141.928 5.77178 141.753 6.53172 141.402 7.1946C141.052 7.85748 140.515 8.37831 139.79 8.7571C139.066 9.13116 138.14 9.31818 137.013 9.31818H133.036V7.72727H136.956C137.733 7.72727 138.358 7.61364 138.831 7.38636C139.31 7.15909 139.655 6.83712 139.868 6.42045C140.086 5.99905 140.195 5.49716 140.195 4.91477C140.195 4.33239 140.086 3.82339 139.868 3.38778C139.65 2.95218 139.302 2.616 138.824 2.37926C138.346 2.13778 137.714 2.01705 136.928 2.01705H133.831V15H132.07ZM138.917 8.46591L142.496 15H140.451L136.928 8.46591H138.917ZM157.136 7.72727C157.136 9.26136 156.859 10.5871 156.305 11.7045C155.751 12.822 154.991 13.6837 154.025 14.2898C153.059 14.8958 151.956 15.1989 150.715 15.1989C149.475 15.1989 148.371 14.8958 147.406 14.2898C146.44 13.6837 145.68 12.822 145.126 11.7045C144.572 10.5871 144.295 9.26136 144.295 7.72727C144.295 6.19318 144.572 4.86742 145.126 3.75C145.68 2.63258 146.44 1.77083 147.406 1.16477C148.371 0.558712 149.475 0.255681 150.715 0.255681C151.956 0.255681 153.059 0.558712 154.025 1.16477C154.991 1.77083 155.751 2.63258 156.305 3.75C156.859 4.86742 157.136 6.19318 157.136 7.72727ZM155.431 7.72727C155.431 6.4678 155.22 5.40483 154.799 4.53835C154.382 3.67188 153.817 3.0161 153.102 2.57102C152.391 2.12595 151.596 1.90341 150.715 1.90341C149.835 1.90341 149.037 2.12595 148.322 2.57102C147.612 3.0161 147.046 3.67188 146.624 4.53835C146.208 5.40483 145.999 6.4678 145.999 7.72727C145.999 8.98674 146.208 10.0497 146.624 10.9162C147.046 11.7827 147.612 12.4384 148.322 12.8835C149.037 13.3286 149.835 13.5511 150.715 13.5511C151.596 13.5511 152.391 13.3286 153.102 12.8835C153.817 12.4384 154.382 11.7827 154.799 10.9162C155.22 10.0497 155.431 8.98674 155.431 7.72727ZM169.643 0.454545H171.404V10.0852C171.404 11.0795 171.17 11.9673 170.701 12.7486C170.237 13.5251 169.581 14.1383 168.734 14.5881C167.886 15.0331 166.892 15.2557 165.751 15.2557C164.61 15.2557 163.615 15.0331 162.768 14.5881C161.92 14.1383 161.262 13.5251 160.793 12.7486C160.329 11.9673 160.097 11.0795 160.097 10.0852V0.454545H161.859V9.94318C161.859 10.6534 162.015 11.2855 162.327 11.8395C162.64 12.3887 163.085 12.822 163.663 13.1392C164.245 13.4517 164.941 13.608 165.751 13.608C166.56 13.608 167.256 13.4517 167.839 13.1392C168.421 12.822 168.866 12.3887 169.174 11.8395C169.487 11.2855 169.643 10.6534 169.643 9.94318V0.454545ZM174.922 15V0.454545H179.836C180.977 0.454545 181.91 0.660511 182.635 1.07244C183.364 1.47964 183.904 2.03125 184.254 2.72727C184.604 3.4233 184.779 4.19981 184.779 5.05682C184.779 5.91383 184.604 6.69271 184.254 7.39347C183.908 8.09422 183.373 8.65294 182.649 9.0696C181.924 9.48153 180.996 9.6875 179.865 9.6875H176.342V8.125H179.808C180.589 8.125 181.217 7.99006 181.69 7.72017C182.163 7.45028 182.507 7.0857 182.72 6.62642C182.938 6.16241 183.047 5.6392 183.047 5.05682C183.047 4.47443 182.938 3.9536 182.72 3.49432C182.507 3.03504 182.161 2.67519 181.683 2.41477C181.205 2.14962 180.57 2.01705 179.779 2.01705H176.683V15H174.922Z" fill="#4F3E35"/>
</svg>
